<svg xmlns="http://www.w3.org/2000/svg" xmlns:xlink="http://www.w3.org/1999/xlink" width="320" zoomAndPan="magnify" viewBox="0 0 240 239.999995" height="320" preserveAspectRatio="xMidYMid meet" version="1.0"><defs><g/><clipPath id="99a9627b32"><path d="M 18.484375 18.484375 L 221.515625 18.484375 L 221.515625 221.515625 L 18.484375 221.515625 Z M 18.484375 18.484375 " clip-rule="nonzero"/></clipPath><clipPath id="0a0e41806a"><path d="M 120 18.484375 C 63.933594 18.484375 18.484375 63.933594 18.484375 120 C 18.484375 176.066406 63.933594 221.515625 120 221.515625 C 176.066406 221.515625 221.515625 176.066406 221.515625 120 C 221.515625 63.933594 176.066406 18.484375 120 18.484375 Z M 120 18.484375 " clip-rule="nonzero"/></clipPath><clipPath id="b2f25ac7fe"><path d="M 0.484375 0.484375 L 203.515625 0.484375 L 203.515625 203.515625 L 0.484375 203.515625 Z M 0.484375 0.484375 " clip-rule="nonzero"/></clipPath><clipPath id="3b58054ad8"><path d="M 102 0.484375 C 45.933594 0.484375 0.484375 45.933594 0.484375 102 C 0.484375 158.066406 45.933594 203.515625 102 203.515625 C 158.066406 203.515625 203.515625 158.066406 203.515625 102 C 203.515625 45.933594 158.066406 0.484375 102 0.484375 Z M 102 0.484375 " clip-rule="nonzero"/></clipPath><clipPath id="daea693a1b"><rect x="0" width="204" y="0" height="204"/></clipPath><clipPath id="18f43cd72a"><rect x="0" width="134" y="0" height="127"/></clipPath></defs><g clip-path="url(#99a9627b32)"><g clip-path="url(#0a0e41806a)"><g transform="matrix(1, 0, 0, 1, 18, 18)"><g clip-path="url(#daea693a1b)"><g clip-path="url(#b2f25ac7fe)"><g clip-path="url(#3b58054ad8)"><path fill="#ffffff" d="M 0.484375 0.484375 L 203.515625 0.484375 L 203.515625 203.515625 L 0.484375 203.515625 Z M 0.484375 0.484375 " fill-opacity="1" fill-rule="nonzero"/></g></g></g></g></g></g><g transform="matrix(1, 0, 0, 1, 47, 51)"><g clip-path="url(#18f43cd72a)"><g fill="#000000" fill-opacity="1"><g transform="translate(9.721397, 102.249626)"><g><path d="M 120.492188 -29.773438 L 107.695312 -51.566406 L 114.15625 -70.445312 L 99.710938 -94.265625 L 50.933594 -94.265625 C 47.132812 -97.8125 40.796875 -100.726562 33.449219 -100.726562 C 22.550781 -100.726562 13.304688 -94.265625 13.304688 -82.609375 C 13.304688 -79.3125 14.824219 -76.273438 16.472656 -73.992188 C 17.863281 -72.089844 18.625 -70.699219 18.625 -69.558594 C 18.625 -59.675781 6.335938 -56.886719 -4.816406 -56 L -2.152344 -36.109375 L 24.074219 0 L 103.765625 0 L 109.085938 -17.738281 C 113.015625 -18.496094 118.96875 -23.566406 120.492188 -29.773438 Z M 101.738281 -52.707031 C 96.039062 -43.835938 87.167969 -41.050781 76.90625 -41.050781 L 74.878906 -34.460938 L 89.070312 -34.460938 L 86.28125 -25.339844 L 14.191406 -25.339844 L 17.230469 -34.460938 L 39.65625 -34.460938 L 42.949219 -43.710938 C 36.871094 -45.230469 28.507812 -46.117188 22.804688 -46.117188 C 17.359375 -46.117188 9.375 -45.105469 3.039062 -41.558594 L 1.902344 -51.058594 C 15.964844 -53.972656 23.945312 -57.902344 23.945312 -69.558594 C 23.945312 -71.964844 23.058594 -73.992188 21.664062 -76.019531 C 20.398438 -77.917969 19.386719 -79.945312 19.386719 -82.609375 C 19.386719 -92.996094 28.507812 -95.277344 33.828125 -95.277344 C 42.445312 -95.277344 47.640625 -90.84375 47.640625 -82.734375 C 47.640625 -68.289062 36.488281 -58.789062 19.003906 -52.328125 L 19.257812 -50.933594 C 30.152344 -55.242188 40.542969 -57.269531 48.144531 -57.269531 L 59.167969 -88.6875 L 92.617188 -88.6875 L 81.339844 -55.242188 C 83.621094 -54.605469 86.027344 -54.226562 88.6875 -54.226562 C 92.742188 -54.226562 97.304688 -55.621094 99.710938 -58.027344 Z M 101.738281 -52.707031 "/></g></g></g></g></g><g fill="#000000" fill-opacity="1"><g transform="translate(54.393155, 178.840052)"><g><path d="M 1.4375 -11.515625 L 3.34375 -11.515625 L 6.4375 -4.40625 L 6.4375 -1.515625 L 5.9375 -1.515625 L 3.34375 -7.921875 L 3.34375 0 L 1.4375 0 Z M 10.171875 -11.515625 L 12.078125 -11.515625 L 12.078125 0 L 10.171875 0 L 10.171875 -7.921875 L 7.59375 -1.515625 L 7.078125 -1.515625 L 7.078125 -4.375 Z M 10.171875 -11.515625 "/></g></g></g><g fill="#000000" fill-opacity="1"><g transform="translate(67.90548, 178.840052)"><g><path d="M 1.203125 -5.8125 C 1.203125 -6.738281 1.3125 -7.554688 1.53125 -8.265625 C 1.757812 -8.984375 2.070312 -9.585938 2.46875 -10.078125 C 2.875 -10.578125 3.347656 -10.957031 3.890625 -11.21875 C 4.441406 -11.488281 5.039062 -11.644531 5.6875 -11.6875 L 5.6875 -10.125 C 5.332031 -10.082031 5 -9.972656 4.6875 -9.796875 C 4.375 -9.617188 4.101562 -9.359375 3.875 -9.015625 C 3.644531 -8.671875 3.460938 -8.234375 3.328125 -7.703125 C 3.191406 -7.171875 3.117188 -6.539062 3.109375 -5.8125 C 3.117188 -5.070312 3.191406 -4.4375 3.328125 -3.90625 C 3.460938 -3.382812 3.644531 -2.945312 3.875 -2.59375 C 4.113281 -2.238281 4.390625 -1.96875 4.703125 -1.78125 C 5.015625 -1.601562 5.34375 -1.5 5.6875 -1.46875 L 5.6875 0.078125 C 5.050781 0.0351562 4.457031 -0.113281 3.90625 -0.375 C 3.351562 -0.644531 2.875 -1.023438 2.46875 -1.515625 C 2.070312 -2.015625 1.757812 -2.625 1.53125 -3.34375 C 1.3125 -4.0625 1.203125 -4.882812 1.203125 -5.8125 Z M 6.3125 -11.6875 C 6.945312 -11.65625 7.535156 -11.503906 8.078125 -11.234375 C 8.628906 -10.960938 9.101562 -10.578125 9.5 -10.078125 C 9.90625 -9.585938 10.222656 -8.984375 10.453125 -8.265625 C 10.679688 -7.554688 10.796875 -6.738281 10.796875 -5.8125 C 10.796875 -4.882812 10.679688 -4.0625 10.453125 -3.34375 C 10.222656 -2.625 9.90625 -2.015625 9.5 -1.515625 C 9.101562 -1.023438 8.632812 -0.644531 8.09375 -0.375 C 7.550781 -0.113281 6.957031 0.0351562 6.3125 0.078125 L 6.3125 -1.46875 C 6.664062 -1.507812 7 -1.617188 7.3125 -1.796875 C 7.625 -1.984375 7.894531 -2.25 8.125 -2.59375 C 8.351562 -2.945312 8.535156 -3.382812 8.671875 -3.90625 C 8.804688 -4.4375 8.878906 -5.070312 8.890625 -5.8125 C 8.878906 -6.550781 8.804688 -7.179688 8.671875 -7.703125 C 8.535156 -8.234375 8.347656 -8.671875 8.109375 -9.015625 C 7.878906 -9.367188 7.609375 -9.632812 7.296875 -9.8125 C 6.984375 -10 6.65625 -10.109375 6.3125 -10.140625 Z M 6.3125 -11.6875 "/></g></g></g><g fill="#000000" fill-opacity="1"><g transform="translate(79.902549, 178.840052)"><g><path d="M 1.5 -11.515625 L 3.375 -11.515625 L 3.375 0 L 1.5 0 Z M 4.96875 -11.515625 C 5.9375 -11.515625 6.785156 -11.359375 7.515625 -11.046875 C 8.253906 -10.742188 8.863281 -10.335938 9.34375 -9.828125 C 9.832031 -9.316406 10.195312 -8.734375 10.4375 -8.078125 C 10.675781 -7.429688 10.796875 -6.765625 10.796875 -6.078125 C 10.796875 -5.128906 10.691406 -4.316406 10.484375 -3.640625 C 10.285156 -2.972656 10.03125 -2.410156 9.71875 -1.953125 C 9.40625 -1.503906 9.050781 -1.148438 8.65625 -0.890625 C 8.269531 -0.628906 7.894531 -0.429688 7.53125 -0.296875 C 7.164062 -0.171875 6.832031 -0.0859375 6.53125 -0.046875 C 6.226562 -0.015625 6.003906 0 5.859375 0 L 4.015625 0 L 4.015625 -1.375 L 5.234375 -1.375 C 6.503906 -1.375 7.421875 -1.78125 7.984375 -2.59375 C 8.546875 -3.40625 8.828125 -4.582031 8.828125 -6.125 C 8.828125 -6.601562 8.769531 -7.078125 8.65625 -7.546875 C 8.539062 -8.015625 8.316406 -8.4375 7.984375 -8.8125 C 7.660156 -9.195312 7.21875 -9.503906 6.65625 -9.734375 C 6.09375 -9.972656 5.363281 -10.09375 4.46875 -10.09375 L 4.015625 -10.09375 L 4.015625 -11.515625 Z M 4.96875 -11.515625 "/></g></g></g><g fill="#000000" fill-opacity="1"><g transform="translate(91.930861, 178.840052)"><g><path d="M 1.484375 -11.515625 L 3.390625 -11.515625 L 3.390625 0 L 1.484375 0 Z M 8.203125 -5.1875 L 4.03125 -5.1875 L 4.03125 -6.46875 L 8.203125 -6.46875 Z M 4.03125 -1.421875 L 8.6875 -1.421875 L 8.6875 0 L 4.03125 0 Z M 8.6875 -11.515625 L 8.6875 -10.09375 L 4.03125 -10.09375 L 4.03125 -11.515625 Z M 8.6875 -11.515625 "/></g></g></g><g fill="#000000" fill-opacity="1"><g transform="translate(101.740965, 178.840052)"><g><path d="M 1.40625 -11.515625 L 3.28125 -11.515625 L 3.28125 0 L 1.40625 0 Z M 9.21875 0 L 7.234375 0 L 5.0625 -4.171875 C 5.03125 -4.171875 4.992188 -4.164062 4.953125 -4.15625 C 4.921875 -4.15625 4.867188 -4.15625 4.796875 -4.15625 C 4.722656 -4.15625 4.613281 -4.15625 4.46875 -4.15625 C 4.332031 -4.15625 4.148438 -4.15625 3.921875 -4.15625 L 3.921875 -5.53125 L 4.984375 -5.53125 C 5.210938 -5.53125 5.441406 -5.566406 5.671875 -5.640625 C 5.898438 -5.722656 6.109375 -5.851562 6.296875 -6.03125 C 6.484375 -6.207031 6.632812 -6.453125 6.75 -6.765625 C 6.863281 -7.085938 6.921875 -7.484375 6.921875 -7.953125 C 6.921875 -8.140625 6.894531 -8.351562 6.84375 -8.59375 C 6.789062 -8.84375 6.679688 -9.078125 6.515625 -9.296875 C 6.359375 -9.523438 6.132812 -9.710938 5.84375 -9.859375 C 5.550781 -10.015625 5.164062 -10.09375 4.6875 -10.09375 L 3.921875 -10.09375 L 3.921875 -11.515625 L 4.71875 -11.515625 C 5.207031 -11.515625 5.691406 -11.4375 6.171875 -11.28125 C 6.648438 -11.125 7.078125 -10.890625 7.453125 -10.578125 C 7.835938 -10.265625 8.144531 -9.882812 8.375 -9.4375 C 8.613281 -9 8.734375 -8.503906 8.734375 -7.953125 C 8.734375 -7.117188 8.539062 -6.410156 8.15625 -5.828125 C 7.769531 -5.242188 7.25 -4.8125 6.59375 -4.53125 Z M 9.21875 0 "/></g></g></g><g fill="#000000" fill-opacity="1"><g transform="translate(112.050947, 178.840052)"><g><path d="M 7.859375 -11.515625 L 9.765625 -11.515625 L 9.765625 0 L 7.859375 0 L 3.984375 -6.8125 L 3.984375 -10.40625 L 7.859375 -3.578125 Z M 1.4375 0 L 1.4375 -11.515625 L 3.34375 -11.515625 L 3.34375 0 Z M 1.4375 0 "/></g></g></g><g fill="#000000" fill-opacity="1"><g transform="translate(123.235715, 178.840052)"><g/></g></g><g fill="#000000" fill-opacity="1"><g transform="translate(127.515919, 178.840052)"><g><path d="M 3.375 0 L 1.46875 0 L 1.46875 -11.515625 L 3.375 -11.515625 Z M 3.375 0 "/></g></g></g><g fill="#000000" fill-opacity="1"><g transform="translate(132.327244, 178.840052)"><g><path d="M 1.5 -11.515625 L 3.375 -11.515625 L 3.375 0 L 1.5 0 Z M 4.96875 -11.515625 C 5.9375 -11.515625 6.785156 -11.359375 7.515625 -11.046875 C 8.253906 -10.742188 8.863281 -10.335938 9.34375 -9.828125 C 9.832031 -9.316406 10.195312 -8.734375 10.4375 -8.078125 C 10.675781 -7.429688 10.796875 -6.765625 10.796875 -6.078125 C 10.796875 -5.128906 10.691406 -4.316406 10.484375 -3.640625 C 10.285156 -2.972656 10.03125 -2.410156 9.71875 -1.953125 C 9.40625 -1.503906 9.050781 -1.148438 8.65625 -0.890625 C 8.269531 -0.628906 7.894531 -0.429688 7.53125 -0.296875 C 7.164062 -0.171875 6.832031 -0.0859375 6.53125 -0.046875 C 6.226562 -0.015625 6.003906 0 5.859375 0 L 4.015625 0 L 4.015625 -1.375 L 5.234375 -1.375 C 6.503906 -1.375 7.421875 -1.78125 7.984375 -2.59375 C 8.546875 -3.40625 8.828125 -4.582031 8.828125 -6.125 C 8.828125 -6.601562 8.769531 -7.078125 8.65625 -7.546875 C 8.539062 -8.015625 8.316406 -8.4375 7.984375 -8.8125 C 7.660156 -9.195312 7.21875 -9.503906 6.65625 -9.734375 C 6.09375 -9.972656 5.363281 -10.09375 4.46875 -10.09375 L 4.015625 -10.09375 L 4.015625 -11.515625 Z M 4.96875 -11.515625 "/></g></g></g><g fill="#000000" fill-opacity="1"><g transform="translate(144.355556, 178.840052)"><g><path d="M 3.375 0 L 1.46875 0 L 1.46875 -11.515625 L 3.375 -11.515625 Z M 3.375 0 "/></g></g></g><g fill="#000000" fill-opacity="1"><g transform="translate(149.166881, 178.840052)"><g><path d="M 1.203125 -5.8125 C 1.203125 -6.738281 1.3125 -7.554688 1.53125 -8.265625 C 1.757812 -8.984375 2.070312 -9.585938 2.46875 -10.078125 C 2.875 -10.578125 3.347656 -10.957031 3.890625 -11.21875 C 4.441406 -11.488281 5.039062 -11.644531 5.6875 -11.6875 L 5.6875 -10.125 C 5.332031 -10.082031 5 -9.972656 4.6875 -9.796875 C 4.375 -9.617188 4.101562 -9.359375 3.875 -9.015625 C 3.644531 -8.671875 3.460938 -8.234375 3.328125 -7.703125 C 3.191406 -7.171875 3.117188 -6.539062 3.109375 -5.8125 C 3.117188 -5.070312 3.191406 -4.4375 3.328125 -3.90625 C 3.460938 -3.382812 3.644531 -2.945312 3.875 -2.59375 C 4.113281 -2.238281 4.390625 -1.96875 4.703125 -1.78125 C 5.015625 -1.601562 5.34375 -1.5 5.6875 -1.46875 L 5.6875 0.078125 C 5.050781 0.0351562 4.457031 -0.113281 3.90625 -0.375 C 3.351562 -0.644531 2.875 -1.023438 2.46875 -1.515625 C 2.070312 -2.015625 1.757812 -2.625 1.53125 -3.34375 C 1.3125 -4.0625 1.203125 -4.882812 1.203125 -5.8125 Z M 6.3125 -11.6875 C 6.945312 -11.65625 7.535156 -11.503906 8.078125 -11.234375 C 8.628906 -10.960938 9.101562 -10.578125 9.5 -10.078125 C 9.90625 -9.585938 10.222656 -8.984375 10.453125 -8.265625 C 10.679688 -7.554688 10.796875 -6.738281 10.796875 -5.8125 C 10.796875 -4.882812 10.679688 -4.0625 10.453125 -3.34375 C 10.222656 -2.625 9.90625 -2.015625 9.5 -1.515625 C 9.101562 -1.023438 8.632812 -0.644531 8.09375 -0.375 C 7.550781 -0.113281 6.957031 0.0351562 6.3125 0.078125 L 6.3125 -1.46875 C 6.664062 -1.507812 7 -1.617188 7.3125 -1.796875 C 7.625 -1.984375 7.894531 -2.25 8.125 -2.59375 C 8.351562 -2.945312 8.535156 -3.382812 8.671875 -3.90625 C 8.804688 -4.4375 8.878906 -5.070312 8.890625 -5.8125 C 8.878906 -6.550781 8.804688 -7.179688 8.671875 -7.703125 C 8.535156 -8.234375 8.347656 -8.671875 8.109375 -9.015625 C 7.878906 -9.367188 7.609375 -9.632812 7.296875 -9.8125 C 6.984375 -10 6.65625 -10.109375 6.3125 -10.140625 Z M 6.3125 -11.6875 "/></g></g></g><g fill="#000000" fill-opacity="1"><g transform="translate(161.16395, 178.840052)"><g><path d="M 9.5625 -11.515625 L 9.5625 -10.234375 L 6.125 -10.234375 L 6.125 0 L 4.234375 0 L 4.234375 -10.234375 L 0.796875 -10.234375 L 0.796875 -11.515625 Z M 9.5625 -11.515625 "/></g></g></g><g fill="#000000" fill-opacity="1"><g transform="translate(171.520795, 178.840052)"><g><path d="M 6.734375 -9.734375 C 6.679688 -9.753906 6.617188 -9.789062 6.546875 -9.84375 C 6.472656 -9.894531 6.367188 -9.941406 6.234375 -9.984375 C 6.097656 -10.035156 5.925781 -10.078125 5.71875 -10.109375 C 5.507812 -10.140625 5.242188 -10.144531 4.921875 -10.125 L 4.921875 -11.703125 C 5.378906 -11.691406 5.84375 -11.640625 6.3125 -11.546875 C 6.789062 -11.460938 7.175781 -11.328125 7.46875 -11.140625 C 7.40625 -11.003906 7.332031 -10.851562 7.25 -10.6875 C 7.164062 -10.53125 7.085938 -10.378906 7.015625 -10.234375 C 6.941406 -10.097656 6.878906 -9.984375 6.828125 -9.890625 C 6.773438 -9.796875 6.742188 -9.742188 6.734375 -9.734375 Z M 1.34375 -8.484375 C 1.34375 -8.941406 1.421875 -9.351562 1.578125 -9.71875 C 1.734375 -10.082031 1.941406 -10.398438 2.203125 -10.671875 C 2.472656 -10.953125 2.785156 -11.171875 3.140625 -11.328125 C 3.503906 -11.492188 3.882812 -11.601562 4.28125 -11.65625 L 4.28125 -10.015625 C 3.945312 -9.898438 3.671875 -9.695312 3.453125 -9.40625 C 3.234375 -9.125 3.125 -8.835938 3.125 -8.546875 C 3.125 -8.140625 3.234375 -7.8125 3.453125 -7.5625 C 3.671875 -7.3125 3.945312 -7.09375 4.28125 -6.90625 L 4.28125 -5.125 C 3.9375 -5.289062 3.59375 -5.46875 3.25 -5.65625 C 2.90625 -5.851562 2.59375 -6.082031 2.3125 -6.34375 C 2.03125 -6.601562 1.796875 -6.90625 1.609375 -7.25 C 1.429688 -7.59375 1.34375 -8.003906 1.34375 -8.484375 Z M 1.59375 -2.109375 C 1.738281 -2.023438 1.921875 -1.941406 2.140625 -1.859375 C 2.367188 -1.785156 2.601562 -1.710938 2.84375 -1.640625 C 3.082031 -1.578125 3.320312 -1.523438 3.5625 -1.484375 C 3.800781 -1.441406 4.023438 -1.421875 4.234375 -1.421875 L 4.28125 -1.421875 L 4.28125 0.0625 L 4.25 0.0625 C 4 0.0625 3.738281 0.046875 3.46875 0.015625 C 3.207031 -0.00390625 2.941406 -0.046875 2.671875 -0.109375 C 2.398438 -0.171875 2.140625 -0.253906 1.890625 -0.359375 C 1.648438 -0.472656 1.441406 -0.609375 1.265625 -0.765625 Z M 4.921875 -6.59375 C 5.265625 -6.4375 5.613281 -6.269531 5.96875 -6.09375 C 6.332031 -5.914062 6.660156 -5.695312 6.953125 -5.4375 C 7.242188 -5.1875 7.484375 -4.878906 7.671875 -4.515625 C 7.859375 -4.148438 7.953125 -3.695312 7.953125 -3.15625 C 7.953125 -2.78125 7.878906 -2.414062 7.734375 -2.0625 C 7.597656 -1.707031 7.398438 -1.382812 7.140625 -1.09375 C 6.890625 -0.8125 6.578125 -0.570312 6.203125 -0.375 C 5.828125 -0.175781 5.398438 -0.046875 4.921875 0.015625 L 4.921875 -1.484375 C 5.773438 -1.691406 6.203125 -2.257812 6.203125 -3.1875 C 6.203125 -3.550781 6.082031 -3.851562 5.84375 -4.09375 C 5.601562 -4.332031 5.296875 -4.554688 4.921875 -4.765625 Z M 4.921875 -6.59375 "/></g></g></g></svg>